PathFileType   4   (X/Y/Z)
DataRate	CameraRate	NumFrames	NumMarkers	Units	OrigDataRate	OrigDataStartFrame	OrigNumFrames
120.0	120.0	7	37	mm	120.0	32	126
Frame#	Time	midhip	hip_r	hip_l	knee_r	knee_l	ankle_r	ankle_l	midasis	asis_r	asis_l	psis_r	psis_l	epicondLat_r	epicondLat_l	epicondMed_r	epicondMed_l	malleolusLat_r	malleolusLat_l	malleolusMedv_r	malleolusMedv_l	neck	subclavicle_r	subclavicle_l	sternalnotch	xyphoidprocess	thighwand_r	thighwand_l	upperleg1_r	upperleg1_l	upperleg2_r	upperleg2_l	shankwand_r	shankwand_l	lowerleg1_r	lowerleg1_l	toe_r	toe_l
 	 	X1	Y1	Z1	X2	Y2	Z2	X3	Y3	Z3	X4	Y4	Z4	X5	Y5	Z5	X6	Y6	Z6	X7	Y7	Z7	X8	Y8	Z8	X9	Y9	Z9	X10	Y10	Z10	X11	Y11	Z11	X12	Y12	Z12	X13	Y13	Z13	X14	Y14	Z14	X15	Y15	Z15	X16	Y16	Z16	X17	Y17	Z17	X18	Y18	Z18	X19	Y19	Z19	X20	Y20	Z20	X21	Y21	Z21	X22	Y22	Z22	X23	Y23	Z23	X24	Y24	Z24	X25	Y25	Z25	X26	Y26	Z26	X27	Y27	Z27	X28	Y28	Z28	X29	Y29	Z29	X30	Y30	Z30	X31	Y31	Z31	X32	Y32	Z32	X33	Y33	Z33	X34	Y34	Z34	X35	Y35	Z35	X36	Y36	Z36	X37	Y37	Z37

	32	0.40000	187.282	748.945	-318.871	170.911	744.219	-247.112	174.907	743.880	-377.366	314.040	428.914	-238.809	148.404	425.632	-359.719	245.415	103.251	-245.364	102.361	69.155	-348.857	243.332	812.820	-310.258	240.250	813.081	-209.759	246.415	812.558	-410.756	85.160	852.346	-281.454	82.739	853.101	-336.805	313.436	430.088	-183.824	143.919	422.998	-413.971	330.815	426.970	-277.498	144.226	405.673	-317.736	234.689	104.789	-209.464	95.741	68.901	-385.259	252.486	107.216	-268.607	102.245	68.486	-318.785	126.034	1223.376	-322.706	228.640	1161.006	-270.032	237.228	1164.618	-345.893	218.452	1161.975	-311.047	244.776	1079.125	-309.589	365.517	581.557	-126.865	306.503	535.583	-385.029	272.308	597.233	-160.615	240.559	599.210	-418.223	310.318	521.684	-172.784	221.088	514.541	-411.034	237.541	216.357	-130.842	128.441	186.490	-464.074	241.721	181.730	-207.383	104.873	152.980	-391.916	326.692	54.247	-216.900	201.245	37.038	-363.625
	33	0.40833	195.236	748.302	-318.902	178.986	743.508	-247.047	182.504	743.041	-377.314	324.640	428.692	-240.623	151.651	425.293	-359.748	271.098	98.506	-243.749	102.694	69.012	-348.899	251.143	812.079	-310.526	248.431	812.439	-210.071	253.856	811.719	-410.981	93.092	851.532	-281.092	90.444	852.277	-336.402	324.040	429.537	-185.633	146.743	422.772	-413.968	338.969	426.126	-279.491	147.912	405.930	-317.116	260.767	99.840	-207.725	95.827	68.848	-385.256	277.600	102.546	-267.137	102.679	68.334	-318.838	133.856	1222.617	-322.906	236.705	1160.345	-270.234	244.476	1163.896	-346.048	226.077	1161.281	-311.072	252.413	1078.432	-309.833	374.504	580.881	-128.363	311.383	533.566	-386.156	281.310	596.386	-162.062	246.152	598.161	-418.476	319.086	520.600	-174.518	225.387	513.606	-411.149	259.327	212.142	-129.886	128.988	186.392	-464.093	263.881	176.858	-205.964	105.608	153.068	-391.759	355.195	54.164	-216.364	201.322	36.861	-363.965
	34	0.41667	203.076	747.373	-318.830	187.103	742.703	-246.962	190.123	742.132	-377.241	334.849	428.279	-242.435	155.144	424.909	-359.766	297.661	94.449	-242.087	103.055	68.891	-348.935	259.010	811.230	-310.771	256.681	811.671	-210.328	261.338	810.789	-411.214	101.115	850.664	-280.710	98.272	851.391	-335.977	334.226	428.778	-187.441	149.750	422.519	-413.945	356.531	428.890	-281.837	151.785	405.467	-317.340	287.539	95.614	-205.998	95.948	68.826	-385.246	302.898	98.365	-265.655	102.955	68.340	-318.817	141.728	1221.823	-323.053	243.421	1158.937	-270.237	251.446	1162.841	-346.134	232.924	1160.158	-311.162	258.726	1077.137	-310.282	383.236	579.856	-129.809	316.448	531.554	-387.462	289.868	595.374	-163.173	251.723	596.796	-418.875	331.372	520.810	-176.100	229.834	512.390	-411.674	280.999	208.340	-128.965	129.651	186.294	-464.092	286.368	172.554	-204.900	106.380	153.053	-391.543	383.601	54.737	-215.667	201.411	36.687	-364.276
	35	0.42500	211.026	746.394	-318.658	195.398	741.812	-246.821	197.813	741.160	-377.112	344.643	427.653	-244.178	158.866	424.469	-359.787	324.051	90.894	-240.387	103.437	68.811	-348.961	267.018	810.288	-311.006	265.157	810.791	-210.551	268.880	809.785	-411.461	109.231	849.758	-280.300	106.229	850.461	-335.531	343.989	427.805	-189.182	152.948	422.236	-413.919	362.219	428.351	-284.878	156.355	404.409	-318.037	314.142	91.907	-204.234	96.097	68.850	-385.225	328.214	94.719	-264.095	103.164	68.430	-318.760	149.673	1220.899	-323.141	252.908	1158.512	-270.272	260.495	1162.092	-346.131	242.182	1159.454	-311.097	268.576	1076.622	-309.947	391.734	578.489	-131.252	321.688	529.540	-388.879	297.997	594.197	-163.940	257.098	595.350	-419.463	338.833	519.394	-178.015	234.549	511.141	-412.495	302.512	204.939	-128.095	130.423	186.200	-464.078	308.701	168.909	-203.745	107.264	153.024	-391.314	411.815	55.940	-214.864	201.510	36.531	-364.538
	36	0.43333	219.246	745.525	-318.383	203.837	740.845	-246.662	205.549	740.147	-376.965	354.021	426.779	-245.786	162.821	423.971	-359.807	350.483	88.024	-238.742	103.811	68.785	-348.966	275.139	809.269	-311.256	273.818	809.807	-210.757	276.459	808.731	-411.756	117.444	848.819	-279.861	114.326	849.496	-335.073	353.344	426.609	-190.790	156.354	421.911	-413.882	368.755	427.454	-287.353	163.864	402.409	-318.497	340.734	88.879	-202.542	96.247	68.936	-385.184	353.690	91.629	-262.598	103.486	68.460	-318.709	157.687	1219.814	-323.214	258.940	1157.020	-270.130	268.815	1161.005	-346.054	249.445	1158.248	-311.418	275.426	1075.290	-309.964	400.027	576.809	-132.715	327.092	527.549	-390.379	306.242	592.824	-164.857	262.617	594.079	-419.896	346.573	517.869	-179.716	240.679	510.276	-413.190	323.800	201.918	-127.287	131.292	186.114	-464.054	330.762	165.787	-202.384	108.255	153.047	-391.152	439.757	57.848	-214.011	201.615	36.409	-364.732
	37	0.44167	227.761	744.792	-318.034	212.241	739.809	-246.588	213.287	739.114	-376.897	362.977	425.614	-247.189	166.979	423.442	-359.815	376.511	85.785	-237.212	104.156	68.828	-348.947	283.268	808.178	-311.543	282.461	808.714	-210.981	284.075	807.642	-412.105	125.760	847.845	-279.387	122.560	848.500	-334.606	362.304	425.186	-192.195	159.965	421.549	-413.829	377.619	427.035	-289.286	169.541	401.455	-318.402	366.939	86.468	-200.961	96.383	69.096	-385.120	379.140	89.089	-261.185	103.841	68.535	-318.617	165.765	1218.654	-323.262	267.128	1155.600	-270.215	276.705	1159.732	-345.971	257.472	1156.922	-311.368	283.377	1073.936	-310.192	408.156	574.850	-134.192	332.602	525.597	-391.910	311.988	591.034	-165.787	268.382	592.827	-420.272	354.281	516.126	-181.290	245.912	509.164	-413.635	344.791	199.252	-126.555	132.249	186.037	-464.020	352.722	163.011	-201.144	109.284	153.122	-391.042	467.294	60.415	-213.167	201.721	36.333	-364.860
	38	0.45000	236.474	744.104	-317.634	220.809	738.729	-246.507	221.093	738.040	-376.820	371.534	424.152	-248.318	171.332	422.883	-359.816	402.307	84.294	-235.899	104.494	68.929	-348.908	291.511	807.043	-311.873	291.292	807.575	-211.249	291.729	806.511	-412.497	134.182	846.830	-278.876	130.913	847.462	-334.117	370.904	423.534	-193.325	163.770	421.166	-413.761	382.060	424.392	-291.438	174.405	401.032	-318.015	392.879	84.766	-199.607	96.521	69.321	-385.036	404.421	87.297	-259.943	104.206	68.680	-318.513	173.900	1217.458	-323.245	275.672	1154.517	-270.082	284.800	1158.592	-345.881	265.773	1155.787	-311.171	291.806	1072.840	-310.070	416.175	572.653	-135.670	338.146	523.686	-393.432	321.938	589.030	-166.970	274.269	591.488	-420.805	361.529	514.166	-182.819	250.811	507.907	-414.023	365.421	196.911	-125.915	133.287	185.977	-463.980	374.600	160.537	-200.145	110.432	153.159	-390.860	494.317	63.795	-212.402	201.832	36.291	-364.962
